# xmcd
#
# Track frame offsets: 
#        150
#        14266
#        28365
#        43152
#        57796
#        71234
#        87348
#        101315
#        116907
#        131762
#        144598
#        158677
#        172980
#        187715
#        204708
#        217388
#        235004
#        247576
#        261109
#        273519
#        285796
#        297255
#        310761
#
# Disc length: 4354 seconds
#
# Revision: 0
# Processed by: cddbd v1.5.2PL0 Copyright (c) Steve Scherf et al.
# Submitted via: ExactAudioCopy v1.1
#
DISCID=4f110017
DTITLE=Various Artist - 69 Hits Summer 2017 -  CD 2
DYEAR=2017
DGENRE=Pop
TTITLE0=Black M Feat. Shakira - Comme Moi
TTITLE1=Maître Gims Feat. Dany Synthé and soFLY and Nius - Loin (Pilule Vi
TTITLE1=olette)
TTITLE2=Singuila - Ay Mama
TTITLE3=Willy William - Voodoo Song
TTITLE4=Cris Cab Feat. J Balvin - Turn Out The Light
TTITLE5=Ridsa - Avancer
TTITLE6=Tibz - Nation
TTITLE7=Léa Castel and Slimane - Abîmée
TTITLE8=Nassi - La Vie Est Belle
TTITLE9=Vitaa - Peine and Pitié
TTITLE10=Amir - Au Coeur De Moi
TTITLE11=David Carreira - Domino
TTITLE12=Vianney - Je M'En Vais
TTITLE13=Boulevard Des Airs and Le Bagad De Lann-Bihoué - Le Bagad De La
TTITLE13=nn-Bihoué
TTITLE14=Michel Fugain, Arcadian, Claudio Capéo, Corneille, Anaïs Delv
TTITLE14=a, Olivier Dion, Mickaël Dos Santos, Patrick Fiori, Florent M
TTITLE14=othe, Damien Sargue, Sophie Tapie and Victoria - Une Belle Hist
TTITLE14=oire (Love Michel Fugain)
TTITLE15=Hoshi - Comment Je Vais Faire
TTITLE16=Nevada Feat. Mark Morrison and Fetty Wap - The Mack
TTITLE17=Don Diablo - Cutting Shapes
TTITLE18=Bamby Feat. Jahyanai King - Real Wifey
TTITLE19=Deorro Feat. DyCy - Goin Up
TTITLE20=W&W - Caribbean Rave
TTITLE21=KSHMR and Crossnaders Feat. Micky Blue - Back to Me
TTITLE22=PAGADIXX Feat. Adixia - Heaven
EXTD=
EXTT0=
EXTT1=
EXTT2=
EXTT3=
EXTT4=
EXTT5=
EXTT6=
EXTT7=
EXTT8=
EXTT9=
EXTT10=
EXTT11=
EXTT12=
EXTT13=
EXTT14=
EXTT15=
EXTT16=
EXTT17=
EXTT18=
EXTT19=
EXTT20=
EXTT21=
EXTT22=
PLAYORDER=
